<?xml version="1.0" encoding="UTF-8"?>
<svg xmlns="http://www.w3.org/2000/svg" version="1.1" viewBox="0 0 467 181">
  <defs>
    <style>
      .cls-1 {
        fill: #354852;
      }
    </style>
  </defs>
  <!-- Generator: Adobe Illustrator 28.7.1, SVG Export Plug-In . SVG Version: 1.2.0 Build 142)  -->
  <g>
    <g id="Layer_1">
      <path class="cls-1" d="M89.8,126c-.4-3.9,1.6-4.4,5.1-4.6,6.1-.5,9.9,1.3,13,6.7,4,6.8,9,13.1,13.6,19.6.7,1,1.1,2.2,2.7,2.9,0-8.6.2-17,0-25.4,0-3.2.9-4.1,3.9-3.7,2.9.3,6.7-.8,8.5.6,2.1,1.6.4,5.5.5,8.4.2,5.4.2,10.8.3,16.1-.6,7.1,0,14.2,0,21.3,0,2.7-.6,3.5-3.6,3.9-7.2.9-11.7-1.5-15.3-7.9-4.3-7.5-9.7-14.3-15.4-21.3,0,3.5,0,6.9,0,10.4,0,5.3,0,10.5,0,15.8,0,2.3-.7,3.1-3,2.9-1.7-.2-3.5-.2-5.1,0-3.5.5-5.6-.4-5.2-4.4.3-.7.4-1.5,0-2.2.4-1.7.4-3.4,0-5.1.4-3.4.4-6.9,0-10.3.4-7.8.4-15.7,0-23.5Z"/>
      <path class="cls-1" d="M183.9,141.4c1.8-7.5,5.2-14.2,12.5-17.6,10.1-4.8,20.4-4.8,30.4.3,7,3.6,10.1,10,11.8,17.3.2,5.6.3,11.2-2.1,16.5-4,8.7-11,13.1-20.2,14.4-4,.6-8,.2-12.1,0-2.1-.7-4.1-1.3-6.2-2l-.2-.2s-.3,0-.3,0c-8.1-4.2-12.3-11.1-13.7-19.9,0-.7-.1-1.5-.2-2.2,0-1.5,0-2.9,0-4.4,0-.7.1-1.5.2-2.2ZM225.1,146.8c0-8.6-4.2-14.5-11.1-15.6-7.4-1.2-13.6,2.6-15.6,9.6-2.5,8.7.6,17.3,7.5,20.2,9.8,4.1,19.2-2.8,19.2-14.2Z"/>
      <path class="cls-1" d="M396.2,123.8c.2-1.1.3-2.3,1.9-2.2,8.4.3,16.9-.8,25.3,1,10.2,2.3,16.6,8.4,18.6,18.9,0,3.2,0,6.4,0,9.6-.3,1.4-.6,2.8-.8,4.2-4.5,11.7-14,15.7-25.5,16.2-5.4.3-10.8,0-16.2.2-2.7.1-3.2-.9-3.2-3.4.1-13.4,0-26.7,0-40.1,0-1.5-.1-2.9-.2-4.4ZM413.3,160.8c9.2-.1,14.2-3.7,15.4-10.7,1.9-11.2-4.8-18.4-16.7-18-2,0-2.8.6-2.7,2.7.1,7.2.3,14.5,0,21.7-.2,3.8.9,5.2,4,4.4Z"/>
      <path class="cls-1" d="M46.9,121.4c2,.5,1.3,2.1,1.3,3.3,0,9.4,0,18.9.1,28.3,0,6.3,3.3,9.1,10.3,9,6.7,0,10.2-3.2,10.3-9.3,0-9.4.1-18.9,0-28.3,0-2.2.4-3.1,2.8-2.9,2.6.2,5.2,0,7.7,0,1.2,0,2.5-.2,2.8,1.5-.6,11.8.5,23.6-.7,35.3-.2,1.5-1.8,2.7-1,4.4v.3c-1.9-.1-1.6,1.8-2.5,2.6-8.1,9.1-27,8.1-34.4,3.9-6-3.4-8.5-9-8.6-15.6-.2-10.4-.2-20.8-.2-31.2,0-1.4,1.1-1.3,2.1-1.3,2.3,0,4.6,0,6.9-.1,1,0,2,0,3,0Z"/>
      <path class="cls-1" d="M259,138.2c-1.1,1.4-1.5,2.9-1.5,4.7-.5.4-.4,1-.2,1.5-.3,1-.3,2,0,2.9-.3,1.3,0,2.5.5,3.7,0,2.3,1,4.2,2.5,5.9,3.3,6.9,18.3,7,20.3-.9.4-1.5,1.4-1.5,2.5-1.5,3.2,0,6.4.1,9.6,0,2.6-.1,2.7.8,2.1,3-1.8,6.7-6.1,11.2-12.6,13.3-8.7,2.9-17.5,3-25.7-1.2-9.1-4.6-12.9-12.7-13-22.6,0-2.3.2-4.6.4-7,6.4-17.4,23.1-24.5,40-17.1,3.6,1.6,6.2,4.2,8.8,7.1.7,1.4,1.3,2.8,2,4.2-.6,1.5,2,3.4-.7,4.5h-8.1c-1.7-.8-4.2,1-5.3-1.6-.2-.3-.3-.7-.5-1-1.1-2.7-3.2-3.8-5.9-4.3-.4-.6-1-.5-1.5-.4-1.8-.2-3.5-.5-5.2.3-4,.6-6.7,2.8-8.2,6.5Z"/>
      <path class="cls-1" d="M351.2,161.4c0-11.9.1-23.8.2-35.6,0-1.3,0-2.7.1-4,10-.1,20-.2,29.9-.3,2.4.6,5.8-1.1,7.2.9,1.2,1.6.3,4.7.4,7.1,0,.6.2,1.2.3,1.8-.2.3-.4.7-.6,1-2.9,0-5.8,0-8.7,0-4.3,0-8.6,0-12.9-.2-2.2,0-2.6.8-2.6,2.8-.1,6.5-.2,6.5,6.3,6.5,4.4,0,8.8,0,13.3,0,2.1,0,2.7.7,2.7,2.8.2,7.8.2,7.8-7.6,7.8-3.9,0-7.9.1-11.8,0-2.2,0-3,.6-2.9,2.9.3,7.2-1,6,6,6.1,5.2,0,10.3.1,15.5,0,2.3,0,3.3.4,3.2,3,0,7.8,0,7.8-7.9,7.8-8.8,0-17.7,0-26.5,0-2.6,0-3.5-.7-3.3-3.3.2-2.3,0-4.6-.1-7Z"/>
      <path class="cls-1" d="M303.3,121.4c.7,0,1.5,0,2.2,0,2.8.6,6.9-1.2,8.3.9,1.4,2.1.5,5.9.6,8.9,0,3.5,0,7.1,0,10.6.3,0,.5,0,.8,0,5.4-6.8,10.7-13.6,16.1-20.4.7,0,1.5,0,2.2,0,3.7,0,7.4,0,11.1,0,1.2.2,2.3.3,1.1,1.9-1,1.3-2.5,2.3-2.7,4.2-5.7,4.9-9.9,11.1-14.8,16.7-1.3,1.5-1,2.4.1,3.7,5.6,6.9,11.2,14,16.8,21,.6.7,1.1,1.5,2,2.8-5.2,0-9.8,0-14.4,0-1.5,0-2.1-1.1-2.8-2.1-4.2-5.4-8.4-10.9-12.6-16.3-.7-.9-1.2-2.1-2.9-2.8,0,5.8-.3,11.4,0,16.9.2,3.7-1.1,4.8-4.5,4.3-.4,0-.7,0-1.1,0q-7.6,0-7.6-7.4c0-13.1,0-26.2,0-39.4,0-1.5-.5-3.4,2-3.4Z"/>
      <path class="cls-1" d="M145.6,125.3c-.3-2.9.9-3.9,4-3.8,9.3.1,9.3,0,9.3,9.4,0,6,0,12,.1,18,0,3.3-.1,6.6-.3,9.9,0,1.6.6,2.2,2.1,2.1,6.2-.1,12.4-.1,18.7-.2,1.7.2,1.6,1.4,1.6,2.7,0,2,0,4.1.2,6.1,0,1.1-.2,2.3-1.7,2.3-1.8,0-3.6,0-5.5-.1-9.5,0-18.9-.2-28.4-.3.1-.2.1-.4,0-.5,0,0,.1-.2.1-.2v-.2c-.1-11.1-.1-22.2-.1-33.4,0-3.7,0-7.4,0-11,0-.2,0-.5,0-.7Z"/>
      <path class="cls-1" d="M200.2,72.7c9.2,2.4,14.7,7.6,15.2,17,.6,9.6-5.1,18.2-14.1,21.5-4.7,1.7-9.7,2.8-14.7,2.8-12.4,0-24.8,0-37.2.2-2.7,0-3.2-.9-3.2-3.4,0-24.1,0-48.3,0-72.5,0-2.5.5-3.4,3.2-3.3,13.5.4,27-.6,40.4.6,1.7.2,3.4.5,5.1.9,7.8,2,14.3,5.5,15.7,14.3,1.5,9.3-1.2,16.7-10.4,21.7ZM178,81.6c-3.6,0-6.5,0-9.5,0-1.6,0-2.2.6-2.2,2.2,0,3.9,0,7.8,0,11.8,0,.9.1,1.9,1.3,1.8,7.6-.3,15.3,1.2,22.7-1.2,3.3-1,4.7-3.6,4.6-7.1-.1-3.5-1.7-5.7-5.2-6.6-4.1-1.1-8.3-.6-11.8-.8ZM175.3,67.1c2.8-.1,6,.3,9.1-.6,4.1-1.1,6.3-3.8,6.2-7.5-.2-3.6-2.5-6-6.6-6.7-3.7-.6-7.3-.4-11-.4-6.6,0-6.6,0-6.6,6.6q0,8.6,8.9,8.6Z"/>
      <path class="cls-1" d="M226,74.7c0-12,0-24,0-36.1,0-2.5.6-3.4,3.3-3.4,17.6.1,35.1,0,52.7,0,2.5,0,3.5.6,3.3,3.3-.2,3.4-.3,6.9,0,10.3.1,2.5-.9,3-3.2,3-10.6,0-21.1.1-31.7,0-2.8,0-4.5.4-3.9,3.8.5,3.5-1.6,8.1.9,10.1,2.1,1.7,6.6.5,10,.6,6.8,0,13.5.1,20.3,0,2.9,0,4.3.5,4,3.8-.3,3.2,0,6.4,0,9.6.1,2.6-.7,3.6-3.5,3.5-9.4-.2-18.9,0-28.4-.1-2.6,0-3.5.7-3.3,3.3.4,3.6-1.5,8.3.8,10.6,2.1,2.1,6.8.5,10.3.6,8.1,0,16.2.2,24.3,0,2.9,0,3.6,1,3.4,3.5-.2,3.5-.2,7.1,0,10.7,0,1.8-.4,2.6-2.4,2.6-18,0-36.1,0-54.1,0-2.8,0-2.4-1.7-2.4-3.4,0-12,0-24,0-36.1h-.1Z"/>
      <path class="cls-1" d="M404.7,112.5c-5.9,0-11.8,0-17.7,0-1.4,0-3.1,0-3.1-1.7,0-1.9,1.7-1.7,3-1.7,2.9,0,5.9-.1,8.8,0,2,0,2.9-.5,2.8-2.7-.1-4.7-.2-9.3,0-14,0-2-.8-2.8-2.6-3.2-3.1-.8-6-2.1-8.6-4-5.3-3.8-8.4-8.8-8.2-15.5.1-4.5,0-9.1,0-13.6,0-1.5.2-3-2.1-3-.9,0-1.6-.6-1.5-1.7,0-1,.8-1.5,1.7-1.6.6,0,1.2,0,1.8,0q7.5-.1,7.5-7.8c0-6.9,0-13.7,0-20.6,0-8.7,4.6-14.8,13.1-16.6,4.7-1,9.5-1,14.1.9,6.4,2.6,10.1,7.9,10.2,14.7,0,8.5.2,16.9,0,25.4-.1,3.4,1,4.4,4.1,4,1.6-.2,3.2,0,4.8,0,1.1,0,2,.3,2.1,1.6.1,1-.6,1.7-1.5,1.7-2.3,0-2,1.6-2,3.1,0,3.7,0,7.4,0,11,0,11.4-4.8,18.2-15.7,21.5-3.2,1-4.2,2.3-4,5.5.3,3.8.2,7.6,0,11.4-.1,2.5.6,3.6,3.3,3.4,2.9-.2,5.9,0,8.8,0,1.2,0,2.7-.2,2.7,1.6,0,1.7-1.4,1.8-2.6,1.8-6.4,0-12.8,0-19.1,0h0ZM427.4,63.6c0-2.3,0-4.7,0-7,0-1.3.9-3.2-1.6-3.3-2.5,0-1.8,1.8-1.8,3.1,0,2.9,0,5.9,0,8.8,0,11.5-6.9,18.4-18.5,18.6-11.7.2-18.8-6.8-18.8-18.5,0-3.2,0-6.4,0-9.6,0-1.3,0-2.5-1.8-2.5-1.9,0-1.8,1.2-1.8,2.5,0,4.3.2,8.6,0,12.9-.4,7.5,3.4,12.2,9.6,15.6,4.2,2.3,8.8,3,13.5,2.9,14.2-.3,21.3-7.6,21.4-21.6,0-.6,0-1.2,0-1.8ZM415,35.5h0c-1,0-1.9,0-2.9,0-1.2,0-2.7,0-2.8,1.6,0,1.7,1.5,1.7,2.6,1.7,1.9,0,3.9,0,5.8,0,1.2,0,2.2-.1,2.2-1.7,0-1.5-.8-1.8-2.1-1.7-1,0-1.9,0-2.9,0ZM415.1,45.9c1.1-1.8,4.9,2,4.7-2.1-.1-3.1-3.3-1.4-5-1.4-1.9,0-5.3-1.3-5.2,1.8,0,2.8,3.5.8,5.5,1.7ZM415,25.4s0,0,0,0c1.2,0,2.4,0,3.7,0,.9,0,1.3-.5,1.3-1.4,0-.9,0-1.8-1.2-1.8-2.7,0-5.4,0-8,0-.8,0-1.3.5-1.4,1.4,0,.9.5,1.4,1.3,1.5,1.5.1,2.9.2,4.4.3ZM414.9,32s0,0,0,0c1,0,1.9,0,2.9,0,.9,0,2,.3,2.1-1.3,0-1.4-.6-1.9-2-1.9-2.1,0-4.1,0-6.2,0-1.1,0-2.4,0-2.4,1.5,0,1.6,1.2,1.5,2.3,1.6,1.1,0,2.2,0,3.3,0ZM414,18.5c1.7,0,3,0,4.3,0,1,0,1.6-.4,1.6-1.5,0-1.3-.6-1.7-1.8-1.7-1.3,0-2.7-.1-4,0-1.7.3-4.8-1.3-4.7,1.6,0,2.8,3.2.9,4.5,1.5Z"/>
      <path class="cls-1" d="M315.9,114.2c-1-1.2-.5-2.6-.5-3.9,0-17.9,0-35.8,0-53.7,0-5,0-4.9-5.1-4.8-5.4.1-10.8,0-16.2.2-2.7.1-3.4-.9-3.2-3.4.3-3.2.3-6.4,0-9.6-.2-2.9.7-3.8,3.7-3.7,19.6.1,39.3,0,58.9,0q6.6,0,6.6,6.8c0,2.2-.2,4.4,0,6.6.3,2.7-.9,3.3-3.4,3.2-5.5-.2-11,0-16.6,0-.6,0-1.1,0-1.7,0-1,0-2.5-.8-2.6,1.2,0,.5,0,1,0,1.5,0,9.6,0,19.1,0,28.7,0,9.3-.2,18.5,0,27.8,0,2.4-.7,3.4-3,3.3-3.9,0-7.9,0-11.8,0-1.7,0-3.4,0-5.2-.1Z"/>
      <path class="cls-1" d="M80,54.6c0,14.8-.1,29.6-.2,44.4,0,3.5-.2,7.1,0,10.6.3,3.4-.6,5.2-4.3,4.7-.7,0-1.5,0-2.2,0-1.7,0-3.4,0-5.2,0-1.8,0-3.6,0-5.4-.2-1.3,0-3,.7-3.6-1.4,0-1.5,0-3,0-4.4,0-17.9,0-35.8.2-53.7,0-2.1-.7-2.7-2.7-2.7-6.1,0-12.3,0-18.4,0-1.3,0-3.2.6-3.4-1.7.1-4.4.5-8.8-.2-13.2-.2-1.4.2-1.4,1.1-1.6.6-.1,1.2,0,1.8,0,22,0,44.1,0,66.1,0,.2.5.4,1,.6,1.5-.3,2.9-.3,5.9,0,8.8,0,.7-.3,1.5-.2,2.2.6,3.4-1,4.1-4.1,3.9-3.7-.2-7.5,0-11.3.2-1.7,0-3.5.2-5.2.2-1.8,0-4.6-1.6-3.7,2.4Z"/>
      <path class="cls-1" d="M132.4,74.4c0,12-.1,24,0,36,0,3.2-1.1,3.9-4,3.8-4.3-.2-8.6-.3-12.9,0-2.9.2-3.7-.7-3.7-3.7.1-21.6,0-43.1.1-64.7,0-3.4-1.5-7.7.8-9.9,2.1-2,6.3-.5,9.6-.6,3.2,0,7.4-1,9.2.6,2.2,1.9.7,6.2.7,9.5.1,9.7,0,19.4,0,29Z"/>
    </g>
  </g>
</svg>