<?xml version="1.0" encoding="UTF-8"?>
<svg xmlns="http://www.w3.org/2000/svg" version="1.1" viewBox="0 0 500 500">
  <defs>
    <style>
      .cls-1 {
        fill: #354852;
      }

      .cls-2 {
        fill: #fafbfb;
      }
    </style>
  </defs>
  <!-- Generator: Adobe Illustrator 28.7.1, SVG Export Plug-In . SVG Version: 1.2.0 Build 142)  -->
  <g>
    <g id="Layer_1">
      <rect class="cls-1" x="1" y=".3" width="499" height="499"/>
      <g>
        <path class="cls-2" d="M90.2,396.4c-.4-4.3,1.8-4.8,5.7-5.2,6.7-.5,11,1.5,14.5,7.5,4.4,7.6,10,14.6,15.1,21.8.7,1.1,1.2,2.4,3,3.3,0-9.6.2-18.9,0-28.2-.1-3.5,1-4.5,4.3-4.2,3.2.3,7.4-.9,9.5.7,2.3,1.8.4,6.1.6,9.3.3,6,.2,11.9.3,17.9-.7,7.9-.1,15.7,0,23.6,0,3-.7,3.9-4,4.3-7.9,1-13-1.7-17-8.8-4.7-8.3-10.8-15.9-17.1-23.6,0,3.8,0,7.7,0,11.5,0,5.8,0,11.7,0,17.5,0,2.5-.8,3.4-3.3,3.2-1.9-.2-3.8-.3-5.7,0-3.9.6-6.3-.4-5.8-4.9.3-.8.4-1.6,0-2.5.5-1.9.5-3.8,0-5.7.5-3.8.5-7.6,0-11.5.5-8.7.5-17.4,0-26.2Z"/>
        <path class="cls-2" d="M194.7,413.6c2-8.4,5.7-15.7,13.9-19.6,11.2-5.3,22.7-5.3,33.8.4,7.7,3.9,11.2,11.1,13.1,19.2.2,6.2.4,12.5-2.3,18.4-4.4,9.7-12.2,14.5-22.4,15.9-4.5.6-8.9.2-13.4,0-2.3-.7-4.6-1.5-6.8-2.2l-.2-.2s-.3,0-.3,0c-9-4.7-13.7-12.3-15.2-22.1,0-.8-.1-1.6-.2-2.5,0-1.6,0-3.3,0-4.9,0-.8.2-1.6.2-2.5ZM209.9,419.6c.3,8.6,3.9,14.1,10.6,16.2,8.1,2.5,16-1.5,18.7-9.4,3.4-9.9-.2-20.3-8.2-23.4-11.1-4.4-21.5,3.8-21.1,16.6Z"/>
        <path class="cls-2" d="M430.5,393.9c.2-1.2.3-2.5,2.1-2.5,9.4.3,18.8-.9,28.1,1.2,11.4,2.6,18.5,9.3,20.6,20.9,0,3.5,0,7.1.1,10.6-.3,1.6-.6,3.1-.9,4.7-5,13-15.5,17.4-28.3,18-6,.3-12,0-18,.2-3,.1-3.6-1.1-3.5-3.8.1-14.8,0-29.7,0-44.5,0-1.6-.1-3.3-.2-4.9ZM445.2,419.2c0,3.1,0,6.3,0,9.4q0,6.9,7.1,6.4c8.2-.6,13.2-4.7,14.4-11.9,2.1-12.8-5.3-20.6-19.4-20-2,0-2.2,1.1-2.1,2.6,0,4.5,0,9,0,13.5Z"/>
        <path class="cls-2" d="M29.3,392.9c.1-1.5,1.2-1.5,2.3-1.5,2.6,0,5.1,0,7.7-.1,1.1,0,2.2,0,3.3,0,2.2.5,1.5,2.3,1.5,3.7,0,10.5,0,21,.1,31.5,0,7,3.7,10.1,11.5,10,7.4,0,11.3-3.5,11.4-10.3,0-10.5.1-21,0-31.5,0-2.4.4-3.5,3.1-3.3,2.8.2,5.7,0,8.6,0,1.3,0,2.8-.3,3.1,1.7-.7,13.1.5,26.2-.7,39.3-.2,1.6-2,3-1.1,4.9v.3c-2.1-.2-1.8,2-2.8,2.9-8.9,10.1-29.6,9-38,4.4-6.8-3.7-9.6-9.9-9.7-17.3-.2-11.6-.2-23.2-.3-34.7Z"/>
        <path class="cls-2" d="M278.1,409.9c-1.2,1.5-1.7,3.3-1.6,5.2-.6.5-.5,1.1-.3,1.7-.4,1.1-.4,2.2,0,3.3-.3,1.4,0,2.8.5,4.1,0,2.5,1.1,4.7,2.7,6.6,6.2,8.3,17.3,7.7,22.6-1.4.7-1.3,1.7-1.2,2.7-1.3,3.7,0,7.4,0,11,0,2.4,0,2.6.7,2,2.9-1.9,7.7-6.8,12.7-14,15.2-9.6,3.3-19.4,3.3-28.6-1.3-10.1-5.1-14.3-14.1-14.4-25.1,0-2.6.3-5.2.4-7.7,7.1-19.3,25.7-27.2,44.4-19,4,1.8,6.9,4.7,9.7,7.8.7,1.5,1.5,3.1,2.2,4.6-.6,1.6,2.2,3.7-.7,5-3,0-6,0-9,0-1.9-.8-4.6,1.2-5.9-1.8l-.6-1.2c-1.2-3-3.6-4.3-6.6-4.7-.5-.6-1.1-.5-1.7-.4-2-.2-3.9-.6-5.8.3-4.4.7-7.5,3.1-9.1,7.3Z"/>
        <path class="cls-2" d="M414.1,391.3c2.7.7,6.4-1.2,8,1,1.3,1.8.4,5.2.5,7.9,0,.7.2,1.3.3,2-.2.4-.5.7-.7,1.1-3.2,0-6.4,0-9.7,0-4.8,0-9.5,0-14.3-.2-2.4,0-2.9.9-2.9,3.1-.1,7.2-.2,7.2,7,7.2,4.9,0,9.8,0,14.7,0,2.3,0,3,.7,3,3,.2,8.6.3,8.6-8.5,8.6-4.4,0-8.7.1-13.1,0-2.5,0-3.3.7-3.2,3.2.3,8.1-1.1,6.6,6.6,6.8,5.9,0,11.7.1,17.6,0,2.6,0,3.2.9,3.2,3.3,0,8.7,0,8.7-8.8,8.7-9.8,0-19.6,0-29.4,0-2.8,0-3.9-.8-3.7-3.7.2-2.6,0-5.2-.2-7.7,0-13.2.1-26.4.2-39.6,0-1.5,0-3,.1-4.5,11.1-.1,22.2-.2,33.3-.4Z"/>
        <path class="cls-2" d="M373.2,391.3c1.3.2,2.5.3,1.2,2.1-1.1,1.5-2.8,2.5-2.9,4.6-6.3,5.4-10.9,12.3-16.4,18.5-1.7,1.9-.8,3,.4,4.4,6.2,7.7,12.4,15.5,18.6,23.3.5.7,1.5,1.2,1.2,2.8-5,0-10.1,0-15.3,0-1.7,0-2.3-1.3-3.1-2.3-4.7-6-9.3-12.1-14-18.1-.8-1-1.3-2.4-3.2-3.1,0,6.6-.3,12.9,0,19.2.2,3.8-1.2,4.9-4.6,4.4-.7,0-1.4,0-2,0-8,0-8,0-8-7.8,0-14.7,0-29.4,0-44.1,0-1.7-.6-3.8,2.3-3.8.8,0,1.6,0,2.4,0,3.2.7,7.6-1.4,9.3,1,1.6,2.4.6,6.5.6,9.9,0,3.9,0,7.9,0,11.8.3,0,.6,0,.9,0,6-7.6,11.9-15.1,17.9-22.7.8,0,1.6,0,2.4,0,4.1,0,8.2,0,12.3,0Z"/>
        <path class="cls-2" d="M152.1,408.7c0-4.1,0-8.2,0-12.3,0-.3,0-.5,0-.8-.3-3.3,1-4.3,4.4-4.2,10.4.2,10.3,0,10.4,10.4,0,6.7.1,13.3.2,20,0,3.7-.1,7.3-.3,11,0,1.8.6,2.4,2.4,2.4,6.9-.1,13.8-.2,20.7-.2,1.8.3,1.8,1.6,1.8,3,0,2.3.1,4.5.2,6.8,0,1.3-.2,2.5-1.9,2.5-1.8,0-3.5-.1-5.3-.1-10.8-.1-21.6-.2-32.4-.3.1-.2.1-.4,0-.6,0,0,.1-.2.1-.2v-.2c-.1-12.4-.1-24.7-.1-37.1Z"/>
      </g>
      <path class="cls-2" d="M259.6,310c11.6,3.3,19.5,9.4,21.3,21.7,2,14.5-6,28.3-19.8,33.3-6.8,2.5-13.8,4-21.1,4-17.7.1-35.4,0-53.1.2-3.8,0-4.6-1.2-4.6-4.8.1-34.5.1-69,0-103.5,0-3.4.5-4.8,4.5-4.8,16.5.3,32.9,0,49.4.2,7.9,0,15.7,1.3,23.1,4.4,9.6,4.1,15,11.2,15.6,21.7.5,10.7-2.7,19.7-12.2,25.6-.9.5-1.7,1.1-3,1.9ZM225.1,345.3c3.3,0,6,0,8.6,0,2.6-.1,5.3-.2,7.8-.8,7.7-1.6,10.6-5,10.4-11.5-.3-6.1-3.5-9.3-11.3-9.9-7.3-.5-14.7-.4-22.1-.4-8.3,0-7.5-1.3-7.5,7.6,0,4.7-1.6,10.8.8,13.7,2.8,3.5,9.2.6,13.3,1.2ZM223.5,301.9c4.5-.1,9.1.3,13.6-.9,5.5-1.5,8.7-5.4,8.5-10.5-.2-5.2-3.5-8.7-9.2-9.7-5.4-.9-10.8-.6-16.3-.6-9.1,0-9.1,0-9.1,9.1q0,12.5,12.5,12.5Z"/>
      <path class="cls-2" d="M296.2,312.8c0-17.2,0-34.3,0-51.5,0-3.6,1-4.8,4.8-4.8,25.1.1,50.2.1,75.2,0,3.7,0,5,1,4.7,4.7-.3,4.5-.4,9.1-.1,13.7.3,4-.9,5.4-5.2,5.3-14.9-.2-29.8.2-44.7,0-4.1,0-6.2.7-5.6,5.4.4,3.1.3,6.3,0,9.4-.5,4.4.8,6.1,5.6,5.9,13.1-.4,26.3,0,39.5-.2,3.7,0,5.4.7,5.1,4.9-.4,4.9-.1,9.8,0,14.7.2,3.4-1.1,4.4-4.5,4.4-13.7-.2-27.4,0-41-.2-3.8,0-5,1.1-4.6,4.7.6,5.2-2.2,11.9,1.2,15.1,3.1,3,9.7.7,14.7.8,11.7.1,23.5.1,35.2,0,3.2,0,4.5.8,4.3,4.1-.2,5.1-.4,10.2,0,15.2.2,3.6-.9,4.8-4.6,4.8-24.9-.2-49.8-.2-74.7,0-4.5,0-5.1-1.6-5.1-5.5.2-17,0-34,0-51,0,0,0,0-.1,0Z"/>
      <path class="cls-2" d="M240.6,235.4c-11.9,0-23.8,0-35.7,0-2.9,0-6.7.4-6.6-3.6,0-4.1,4.1-3.2,6.9-3.2,5.6,0,11.2-.3,16.7,0,4.3.2,5.4-1.4,5.3-5.5-.2-9.2-.2-18.4,0-27.6.1-3.6-1.2-5.2-4.5-6-5.7-1.4-11-3.7-15.9-6.9-11.9-7.7-18.5-18.1-18-32.7.3-8.5,0-17,0-25.5,0-3.1.8-6.6-4.3-6.5-1.9,0-3.1-1.4-2.9-3.4.3-2,1.7-2.9,3.6-2.9,4.4-.1,8.8-.4,13.1,0,4.2.3,5.3-1.3,5.3-5.4-.2-17.2,0-34.4,0-51.7,0-16.4,9.5-28.7,26-32,9.2-1.8,18.8-1.9,27.9,1.9,12.6,5.3,19.9,15.6,19.9,29.3,0,17.2.2,34.4,0,51.7,0,4.7,1.2,6.7,6.1,6.2,3.8-.4,7.8,0,11.6,0,2.1,0,3.9.8,4,3.2,0,2-1.4,3.2-3.2,3.2-4.1.1-3.8,2.8-3.8,5.6,0,8.5,0,17,0,25.5,0,19.5-10.6,33.4-31.2,39.5-6.1,1.8-8.1,4.1-7.7,10.3.5,8,.3,16,0,24-.2,4.5,1.5,6,5.9,5.8,5.8-.3,11.6,0,17.5,0,2.5,0,6-.8,5.8,3.4-.2,3.7-3.4,3.4-6.1,3.5-11.9,0-23.8,0-35.7,0h0ZM284.2,138.6c0-5.3,0-10.7,0-16,0-2.2.1-4.4-3.2-4.5-3.6-.1-3.7,2.1-3.7,4.7,0,6.3,0,12.6,0,18.9-.1,22.9-13.6,36.5-36.5,36.8-23.2.4-37.3-13.5-37.3-36.6,0-6.3,0-12.6,0-18.9,0-2.5.2-4.9-3.5-5-3.7-.1-3.6,2.2-3.6,4.8,0,8.5.4,17,0,25.5-.9,15.9,7.7,25.4,20.8,31.8,8,3.9,16.6,5.1,25.5,4.8,27.8-1,41.6-15.2,41.6-42.7,0-1.2,0-2.4,0-3.6ZM259.3,90c3.2-1.8,9.7,2.8,9.8-3.4.1-7.1-6.7-2.8-10.2-3.2-3.5-.4-10.2-2.4-10.2,2.8,0,6.3,6.8,2.4,10.5,3.8ZM259.3,103c1.9,0,3.9,0,5.8,0,2.3,0,4.4.2,4.4-3.1,0-2.9-1.3-3.7-4-3.6-3.9.2-7.7,0-11.6,0-2.3.1-5.4,0-5.5,3.3-.1,4.1,3.4,3.1,5.9,3.4,1.7.2,3.4,0,5.1,0ZM260.2,43.2c-3,0-5.5-.1-7.9,0-1.9.1-4,.4-4.1,3.1,0,2.7,2,3,4,3.1,2.4.1,4.9.5,7.2,0,3.4-.8,9.8,3.2,9.6-3.4-.2-5.8-6.3-1.4-8.9-2.7ZM260.7,56.5c-3.2,0-5.8,0-8.5,0-2.1,0-3.9.6-3.8,3.3,0,2.2,1.7,2.7,3.5,2.9,2.7.2,5.4.7,7.9.1,3.2-.8,9.1,3.2,9.3-2.9.2-6.4-6-1.9-8.4-3.4ZM259.4,76.1s0,0,0,0c1.9,0,3.8,0,5.8,0,2.2,0,4.5.2,4.2-3.2-.2-2.6-1.8-3-3.9-3-4.1,0-8.2,0-12.3,0-2.1,0-4.7,0-4.8,3-.1,3.7,3,3.1,5.2,3.2,1.9.1,3.8,0,5.8,0Z"/>
      <path class="cls-2" d="M453.3,284.1c0,13.7,0,27.3,0,41,0,13.2-.3,26.4-.1,39.7,0,3.4-1.1,4.8-4.4,4.7-5.6,0-11.2,0-16.8,0-2.5,0-4.9-.1-7.4-.2-1.4-1.7-.7-3.7-.8-5.6,0-25.6,0-51.2,0-76.8,0-7.1,0-7-7.3-6.8-7.7.2-15.4,0-23.1.3-3.8.1-4.9-1.2-4.6-4.9.4-4.5.4-9.1,0-13.7-.3-4.2,1.1-5.4,5.3-5.3,28.1.2,56.1.1,84.2.1q9.5,0,9.5,9.7c0,3.2-.2,6.3,0,9.5.4,3.9-1.2,4.7-4.8,4.6-7.9-.2-15.8,0-23.7,0-.8,0-1.6,0-2.4,0-1.5,0-3.5-1.1-3.7,1.7v2.1Z"/>
      <path class="cls-2" d="M58.2,367.2c0-2.1,0-4.2,0-6.3,0-25.6,0-51.2.2-76.7,0-3-1-3.9-3.9-3.9-8.8.1-17.5.1-26.3,0-1.8,0-4.5.9-4.8-2.4.2-6.3.7-12.6-.3-18.8-.3-2,.3-2,1.5-2.3.9-.2,1.7-.1,2.6-.1,31.5,0,63,0,94.5,0,.3.7.5,1.4.8,2.2-.5,4.2-.4,8.4,0,12.6,0,1-.4,2.1-.2,3.1.9,4.9-1.5,5.8-5.8,5.6-5.3-.3-10.7.1-16.1.2-2.5.1-5,.2-7.4.3-2.6-.1-6.5-2.4-5.2,3.4,0,21.1-.2,42.3-.3,63.4,0,5.1-.3,10.2,0,15.2.4,4.8-.9,7.4-6.1,6.7-1.1,0-2.1,0-3.2,0-2.5,0-4.9,0-7.4,0-2.6,0-5.1,0-7.7-.3-1.9-.1-4.3,1-5.1-2Z"/>
      <path class="cls-2" d="M162.5,312.9c0,17-.2,34,.1,50.9,0,4.6-1.5,5.6-5.7,5.4-6.1-.3-12.3-.4-18.4,0-4.2.3-5.3-1-5.3-5.2.2-30.8,0-61.6.1-92.4,0-4.8-2.2-11,1.1-14.2,3-2.9,9-.8,13.7-.8,4.5,0,10.5-1.5,13.2.8,3.1,2.7,1,8.9,1,13.5.1,14,0,28,0,42Z"/>
    </g>
  </g>
</svg>